<svg width="151" height="135" viewBox="0 0 151 135" fill="none" xmlns="http://www.w3.org/2000/svg">
<path d="M37.2531 110.804H18.9419V113.053H37.2531V110.804Z" fill="#263238"/>
<path d="M37.2838 113.081H18.9102V110.776H37.2838V113.081ZM18.9727 113.025H37.221V110.832H18.9727V113.025Z" fill="#263238"/>
<path d="M20.6392 112.305L23.275 123.93H33.0272L35.5752 113.053L20.6392 112.305Z" fill="#263238"/>
<path d="M20.6392 122.83L22.045 124.558H33.8988L35.5752 122.83H20.6392Z" fill="#455A64"/>
<path d="M27.4091 112.644C27.3731 112.644 27.3269 107.258 27.3061 100.616C27.2853 93.9719 27.2973 88.5873 27.3336 88.5873C27.3695 88.5873 27.4157 93.9716 27.4366 100.616C27.4574 107.258 27.445 112.644 27.4091 112.644Z" fill="#263238"/>
<path d="M31.4878 99.1667C31.4918 99.1686 31.4749 99.2115 31.4386 99.292C31.3957 99.3835 31.3417 99.4988 31.2752 99.6405C31.2387 99.7172 31.1988 99.8009 31.1559 99.8916C31.1182 99.9864 31.0774 100.088 31.0339 100.197C30.9895 100.307 30.9424 100.424 30.8929 100.548C30.844 100.672 30.8053 100.808 30.7573 100.948C30.5574 101.506 30.3982 102.19 30.2451 102.952C30.1119 103.718 30.0117 104.566 29.9615 105.459C29.8724 107.248 29.9854 108.869 30.1062 110.037C30.1651 110.622 30.2243 111.094 30.2681 111.42C30.2868 111.573 30.3022 111.698 30.3143 111.796C30.3233 111.883 30.3261 111.928 30.3215 111.929C30.317 111.929 30.3058 111.885 30.2883 111.8C30.2699 111.702 30.2466 111.578 30.2179 111.426C30.159 111.102 30.0857 110.63 30.0147 110.046C29.87 108.877 29.742 107.25 29.8314 105.453C29.8818 104.556 29.986 103.703 30.1267 102.934C30.2871 102.169 30.4568 101.482 30.6691 100.923C30.7202 100.783 30.7618 100.648 30.8141 100.524C30.8675 100.401 30.918 100.284 30.9654 100.174C31.0125 100.066 31.0569 99.9645 31.098 99.8703C31.1433 99.7785 31.1892 99.6967 31.2284 99.6222C31.3042 99.4837 31.3658 99.3711 31.4148 99.2817C31.4589 99.2042 31.4839 99.1648 31.4878 99.1667Z" fill="#263238"/>
<path d="M31.0197 94.8108C31.024 94.8121 31.0037 94.8734 30.9614 94.9885C30.914 95.1129 30.8506 95.2798 30.7709 95.4893C30.7283 95.5987 30.6818 95.7191 30.6308 95.85C30.5852 95.9845 30.5359 96.1295 30.4834 96.285C30.3765 96.5966 30.2521 96.9508 30.1418 97.3493C30.0832 97.5481 30.0219 97.7557 29.9582 97.972C29.9032 98.1907 29.8459 98.4177 29.7867 98.6529C29.6586 99.1216 29.5665 99.6308 29.4484 100.163C29.2467 101.232 29.0688 102.415 28.9462 103.662C28.8305 104.91 28.7801 106.103 28.7623 107.188C28.7587 108.274 28.7741 109.251 28.8239 110.071C28.8402 110.482 28.8695 110.852 28.893 111.177C28.9139 111.503 28.9368 111.783 28.9601 112.012C28.9788 112.233 28.9939 112.408 29.0048 112.54C29.0136 112.66 29.016 112.724 29.0117 112.724C29.0072 112.725 28.996 112.662 28.9788 112.542C28.9616 112.411 28.9387 112.236 28.9097 112.016C28.8786 111.788 28.8484 111.508 28.8203 111.183C28.7898 110.857 28.7538 110.486 28.7318 110.076C28.6702 109.255 28.6451 108.275 28.6421 107.188C28.6533 106.1 28.7001 104.904 28.816 103.652C28.939 102.402 29.1211 101.216 29.3297 100.144C29.4514 99.6111 29.5478 99.1011 29.681 98.6316C29.7429 98.3964 29.8027 98.1688 29.8604 97.9501C29.9271 97.7338 29.9914 97.5262 30.0527 97.3275C30.169 96.9292 30.2998 96.5758 30.4136 96.2653C30.4701 96.1106 30.5229 95.9661 30.5716 95.8325C30.6265 95.7023 30.6767 95.5827 30.7226 95.4742C30.812 95.2676 30.8832 95.1032 30.9364 94.9804C30.9871 94.8675 31.0155 94.8092 31.0197 94.8108Z" fill="#263238"/>
<path d="M26.2509 113.597C26.2484 113.597 26.2451 113.576 26.2406 113.534C26.2361 113.486 26.2303 113.425 26.2234 113.349C26.2104 113.177 26.1923 112.939 26.1696 112.636C26.1258 112.007 26.063 111.113 25.986 110.012C25.8272 107.798 25.597 104.738 25.1803 101.374C24.9674 99.6913 24.7203 98.0937 24.4636 96.6452C24.3271 95.9221 24.2033 95.2341 24.0629 94.594C23.9342 93.9519 23.7953 93.3574 23.6676 92.8147C23.5474 92.2704 23.413 91.7833 23.3052 91.3534C23.1992 90.9231 23.0965 90.5548 23.0107 90.2543C22.9301 89.9594 22.8664 89.7272 22.8204 89.5604C22.8014 89.4861 22.7863 89.4265 22.7742 89.3789C22.7646 89.3379 22.7606 89.3166 22.7628 89.316C22.7649 89.3155 22.7733 89.3357 22.7872 89.3757C22.8026 89.4221 22.822 89.481 22.8461 89.5542C22.8978 89.7199 22.9693 89.9502 23.0602 90.2429C23.1536 90.5421 23.2635 90.909 23.3764 91.3383C23.4912 91.7673 23.6319 92.2536 23.7582 92.7974C23.8916 93.3396 24.036 93.9341 24.1695 94.5762C24.3147 95.2163 24.4428 95.9046 24.5826 96.6279C24.8463 98.0772 25.0972 99.6767 25.3104 101.361C25.7278 104.729 25.9431 107.791 26.0784 110.007C26.1458 111.116 26.1926 112.013 26.2207 112.633C26.233 112.937 26.243 113.176 26.25 113.348C26.2518 113.424 26.2533 113.485 26.2542 113.534C26.2542 113.575 26.253 113.597 26.2509 113.597Z" fill="#263238"/>
<path d="M27.2596 91.1763C27.1801 90.4133 26.3176 89.8377 25.4606 89.8298C24.6035 89.822 23.8047 90.2816 23.2804 90.8877C22.7561 91.4939 22.4671 92.2342 22.2307 92.9708C21.6535 94.7684 21.338 96.6568 21.5847 98.5139C21.8314 100.371 22.6743 102.199 24.1647 103.511C24.4069 103.725 24.721 103.938 25.0535 103.874C25.2353 103.84 25.3845 103.727 25.5225 103.616C28.4507 101.251 30.1413 97.7087 30.0253 94.1825C30.002 93.4765 29.8984 92.7415 29.4609 92.1532C29.0233 91.5649 28.0043 90.9401 27.2596 91.1763Z" fill="#455A64"/>
<path d="M27.3336 88.5873C23.7047 86.673 20.0759 84.7584 16.4471 82.8441C16.3359 82.7855 16.2157 82.7164 16.1819 82.6052C16.1384 82.4613 16.2595 82.3222 16.3755 82.215C17.8728 80.834 20.0478 80.0334 22.1932 80.1717C24.3389 80.3096 26.4022 81.418 27.4529 83.0963C28.5038 84.7744 28.5385 86.994 27.3336 88.5873Z" fill="#455A64"/>
<path d="M18.0161 81.0106C18.0158 81.0065 18.065 81.0011 18.1587 80.9946C18.2526 80.9903 18.3912 80.9752 18.57 80.9771C18.9276 80.9693 19.4479 80.9903 20.0806 81.0843C20.713 81.1772 21.4559 81.3591 22.2317 81.6686C23.0073 81.9764 23.8097 82.4224 24.5408 83.008C25.2659 83.6001 25.8421 84.2697 26.2622 84.9291C26.6838 85.5887 26.9604 86.2313 27.1269 86.7845C27.2948 87.338 27.3697 87.7986 27.3968 88.1175C27.4165 88.2765 27.4089 88.3173 27.4134 88.4013C27.4156 88.4855 27.334 88.6135 27.3295 88.6138C27.318 88.6143 27.3896 88.438 27.3464 88.1224C27.3041 87.8067 27.2156 87.352 27.0384 86.8072C26.6941 85.7234 25.895 84.2619 24.4535 83.0944C23.0109 81.9288 21.3052 81.3634 20.0646 81.1653C19.4403 81.0619 18.9254 81.0284 18.57 81.0222C18.2142 81.0154 18.0164 81.0211 18.0161 81.0106Z" fill="#263238"/>
<path d="M25.86 84.6231C25.8664 84.638 25.6565 84.7247 25.3098 84.8467C24.9631 84.969 24.4784 85.1251 23.936 85.2792C23.3936 85.4331 22.8968 85.5555 22.5347 85.6348C22.1726 85.7139 21.9455 85.7512 21.941 85.7361C21.9365 85.7202 22.1551 85.6548 22.51 85.5554C22.9113 85.4434 23.3794 85.3127 23.8964 85.1683C24.412 85.0195 24.8785 84.8848 25.2784 84.7692C25.6326 84.6671 25.8537 84.6077 25.86 84.6231Z" fill="#263238"/>
<path d="M24.1458 80.5062C24.1809 80.5032 24.2582 80.9887 24.2745 81.5919C24.292 82.1953 24.2425 82.6835 24.2071 82.6821C24.1703 82.681 24.1615 82.1942 24.144 81.5948C24.1277 80.9957 24.109 80.5089 24.1458 80.5062Z" fill="#263238"/>
<path d="M16.3521 82.735C16.347 82.7202 16.6484 82.6225 17.1431 82.4864C17.6377 82.35 18.3266 82.1775 19.0943 82.012C19.8626 81.8467 20.5638 81.7198 21.0733 81.6399C21.5831 81.5597 21.9011 81.5241 21.9041 81.5395C21.9074 81.556 21.5957 81.6202 21.0914 81.7209C20.5871 81.8214 19.891 81.9607 19.1248 82.1257C18.3589 82.2909 17.6682 82.4502 17.1681 82.566C16.668 82.6813 16.3576 82.751 16.3521 82.735Z" fill="#263238"/>
<path d="M22.7415 89.5209C21.8053 88.8862 20.815 88.7612 19.6412 88.8028C18.467 88.8443 17.3242 89.1643 16.2479 89.5858C14.4123 90.3045 12.6867 91.364 11.5898 92.8635C10.493 94.3631 10.1113 96.3482 10.9324 97.9828C11.0142 98.1456 11.1208 98.3157 11.3042 98.3861C11.4974 98.4601 11.7188 98.4023 11.9187 98.344C14.0064 97.7352 16.1093 97.1204 18.0288 96.1667C19.9486 95.2131 21.696 93.8877 22.7261 92.1534C22.9731 91.7374 23.18 91.2913 23.2205 90.8218C23.2606 90.352 23.1157 89.8525 22.7415 89.5209Z" fill="#455A64"/>
<path d="M22.76 89.3241C22.7612 89.3279 22.7093 89.3465 22.6096 89.3787C22.4966 89.4135 22.3517 89.458 22.172 89.5131C22.0754 89.542 21.9697 89.5733 21.8552 89.6076C21.7404 89.6446 21.6178 89.6905 21.4849 89.7364C21.2207 89.832 20.9142 89.9273 20.5913 90.0674C20.4279 90.1338 20.257 90.2035 20.0794 90.2759C19.9019 90.349 19.7246 90.4392 19.537 90.5248C19.1586 90.6911 18.7757 90.9033 18.368 91.1185C17.5677 91.5711 16.7206 92.1156 15.8958 92.7577C15.0783 93.4073 14.3659 94.0893 13.7619 94.7414C13.4711 95.0757 13.1869 95.388 12.954 95.7026C12.8354 95.8581 12.7128 96.0039 12.6089 96.1519C12.5059 96.3001 12.4071 96.4429 12.3123 96.5793C12.1157 96.8479 11.9707 97.1077 11.8312 97.3296C11.7633 97.4417 11.6968 97.5443 11.641 97.6415C11.5884 97.7387 11.5401 97.8283 11.496 97.9104C11.412 98.0624 11.3441 98.1855 11.2912 98.2811C11.2429 98.3653 11.2157 98.4091 11.2115 98.4075C11.2073 98.4058 11.2266 98.3591 11.2671 98.2716C11.3145 98.1734 11.3752 98.0473 11.4501 97.8909C11.4915 97.8072 11.5365 97.716 11.5854 97.6169C11.6379 97.5181 11.7017 97.4133 11.7666 97.2996C11.9007 97.0737 12.0408 96.8099 12.2332 96.5372C12.3262 96.3987 12.4231 96.2539 12.524 96.1033C12.6264 95.9532 12.7475 95.8052 12.865 95.6475C13.0951 95.3289 13.3781 95.0119 13.6683 94.6736C14.2711 94.0132 14.9859 93.3242 15.8095 92.67C16.64 92.0233 17.4955 91.4774 18.3046 91.027C18.7168 90.8129 19.1043 90.6023 19.4872 90.4389C19.6772 90.3547 19.8566 90.2661 20.0363 90.1946C20.2159 90.1244 20.389 90.0566 20.5545 89.9918C20.8815 89.8557 21.192 89.7653 21.4596 89.6751C21.5943 89.6319 21.7184 89.5887 21.8347 89.555C21.9509 89.5242 22.0581 89.4958 22.156 89.4699C22.3387 89.4232 22.4867 89.3854 22.6017 89.356C22.7044 89.3311 22.7588 89.3201 22.76 89.3241Z" fill="#263238"/>
<path d="M15.4452 92.8649C15.4552 92.8959 14.4356 93.1897 13.1678 93.521C11.8997 93.8526 10.8636 94.0961 10.8536 94.0653C10.8433 94.0343 11.8632 93.7408 13.1313 93.4092C14.3988 93.0777 15.4349 92.8341 15.4452 92.8649Z" fill="#263238"/>
<path d="M15.3513 97.3585C15.3338 97.3588 15.3132 97.1163 15.3012 96.724C15.2891 96.3317 15.2873 95.7895 15.306 95.1912C15.3247 94.5926 15.3607 94.0513 15.3972 93.66C15.4337 93.2691 15.4691 93.028 15.4869 93.0291C15.5053 93.0301 15.5023 93.2729 15.4893 93.6646C15.4745 94.0945 15.4564 94.6167 15.4365 95.1945C15.4201 95.772 15.4056 96.2942 15.3936 96.724C15.3821 97.1158 15.3697 97.3582 15.3513 97.3585Z" fill="#263238"/>
<path d="M19.6569 95.3975C19.621 95.3997 19.5065 94.2981 19.4011 92.937C19.2957 91.5754 19.2396 90.4703 19.2755 90.4681C19.3114 90.466 19.4259 91.5673 19.5313 92.9289C19.6364 94.29 19.6929 95.3953 19.6569 95.3975Z" fill="#263238"/>
<path d="M14.2974 90.3612C14.2983 90.345 14.5773 90.3388 15.0276 90.3415C15.4779 90.3442 16.0991 90.356 16.7849 90.3763C17.4711 90.3965 18.092 90.4214 18.5414 90.4454C18.9907 90.4692 19.2686 90.4921 19.2683 90.5081C19.268 90.5243 18.9895 90.5305 18.5393 90.5278C18.089 90.5251 17.4672 90.5132 16.7804 90.4929C16.094 90.4727 15.4724 90.4478 15.0231 90.4238C14.574 90.4001 14.2965 90.3771 14.2974 90.3612Z" fill="#263238"/>
<path d="M24.632 103.767C24.6275 103.767 24.6223 103.723 24.6163 103.637C24.6112 103.539 24.6048 103.415 24.5973 103.263C24.581 102.938 24.577 102.466 24.5912 101.885C24.603 101.302 24.6474 100.61 24.7256 99.843C24.8105 99.0768 24.9331 98.2365 25.1089 97.3609C25.2895 96.4861 25.5057 95.6602 25.7286 94.9153C25.9575 94.1717 26.1894 93.5083 26.4078 92.9586C26.6243 92.408 26.8137 91.9671 26.9574 91.6669C27.0248 91.5262 27.0797 91.4118 27.1232 91.3213C27.1625 91.2427 27.1851 91.2022 27.189 91.2038C27.1933 91.2052 27.1788 91.2487 27.1477 91.3299C27.1102 91.4223 27.0631 91.5392 27.0048 91.6828C26.8759 91.9874 26.7001 92.4318 26.4953 92.984C26.2885 93.5356 26.0668 94.1995 25.8448 94.942C25.6292 95.6858 25.4172 96.5093 25.2375 97.3812C25.0624 98.2533 24.9364 99.09 24.8455 99.8533C24.761 100.617 24.7075 101.307 24.6837 101.887C24.658 102.467 24.6477 102.938 24.6483 103.263C24.6462 103.415 24.6444 103.539 24.6429 103.637C24.6402 103.722 24.6365 103.767 24.632 103.767Z" fill="#263238"/>
<path d="M25.2059 97.395C25.218 97.4063 25.0534 97.5699 24.7716 97.821C24.4899 98.0721 24.09 98.4091 23.6337 98.7668C23.1771 99.1246 22.751 99.4348 22.4357 99.6516C22.1204 99.8684 21.9171 99.9929 21.9063 99.9808C21.8948 99.9678 22.0775 99.8206 22.3771 99.5879C22.7117 99.3282 23.1088 99.0201 23.5476 98.6791C23.9828 98.3348 24.3766 98.0233 24.7082 97.7608C25.006 97.5259 25.1932 97.3831 25.2059 97.395Z" fill="#263238"/>
<path d="M28.6521 99.8765C28.6364 99.8855 28.4636 99.6641 28.1894 99.3039C27.8919 98.9156 27.5223 98.4334 27.1137 97.9004C26.6963 97.3723 26.3191 96.8949 26.0153 96.5105C25.7329 96.1554 25.5608 95.9337 25.5756 95.9237C25.5895 95.9143 25.7873 96.1181 26.0893 96.4613C26.3913 96.8042 26.7951 97.2872 27.2209 97.834C27.6461 98.3807 28.0124 98.8873 28.267 99.2593C28.5216 99.6314 28.6669 99.8684 28.6521 99.8765Z" fill="#263238"/>
<path d="M26.8474 92.0719C26.8667 92.0989 25.7221 92.788 24.2909 93.6106C22.8594 94.4336 21.6835 95.0784 21.6638 95.0514C21.6442 95.0244 22.7888 94.3356 24.2203 93.5126C25.6514 92.69 26.8277 92.0449 26.8474 92.0719Z" fill="#263238"/>
<path d="M30.0748 95.1863C30.0497 95.2093 29.2745 94.5689 28.3434 93.7562C27.4121 92.9429 26.6779 92.2652 26.7033 92.2423C26.7283 92.2193 27.5036 92.8595 28.4346 93.6727C29.3654 94.4857 30.0999 95.1634 30.0748 95.1863Z" fill="#263238"/>
<path d="M30.8862 95.124L31.8689 95.0513C32.5663 94.9998 33.2433 94.8151 33.8534 94.5084C34.1548 94.3566 34.4577 94.2081 34.7781 94.0931C35.993 93.6571 37.3484 93.7351 38.6558 93.6765C40.7897 93.5807 42.9013 93.0984 44.8247 92.2663C44.9359 92.2182 45.034 92.1451 45.0935 92.0481C45.2953 91.7196 44.9205 91.4266 44.5979 91.2489C42.9424 90.3369 41.2575 89.4135 39.38 88.9607C37.5024 88.5079 35.3715 88.5846 33.7697 89.5701C31.8889 90.7268 31.2039 93.103 30.8862 95.124Z" fill="#455A64"/>
<path d="M45.1155 91.9399C45.1134 91.9434 45.056 91.9194 44.9488 91.8705C44.831 91.8154 44.6761 91.7428 44.4831 91.6523C44.0794 91.4625 43.4977 91.182 42.7629 90.8672C42.0276 90.5556 41.1367 90.2038 40.1002 89.9497C39.068 89.6932 37.8769 89.559 36.6489 89.6997C35.4258 89.8439 34.3 90.2691 33.5027 90.9077C32.7006 91.5441 32.2105 92.3122 31.8644 92.9648C31.5192 93.6233 31.3063 94.1833 31.1516 94.5667C31.0792 94.7506 31.0209 94.8977 30.9768 95.0098C30.936 95.1108 30.9125 95.1634 30.9079 95.1621C30.9037 95.161 30.9188 95.1059 30.9517 95.0025C30.9901 94.8885 31.0405 94.739 31.1036 94.5521C31.2441 94.1639 31.4437 93.5985 31.781 92.93C32.1192 92.2677 32.6067 91.483 33.4233 90.8267C34.2354 90.1681 35.3878 89.7299 36.632 89.5836C37.8811 89.4402 39.0912 89.5809 40.1322 89.8458C41.178 90.1085 42.0704 90.4705 42.8034 90.7927C43.5358 91.1183 44.1111 91.4101 44.5076 91.6124C44.696 91.7109 44.8467 91.7898 44.9615 91.8497C45.0645 91.9056 45.1176 91.9364 45.1155 91.9399Z" fill="#263238"/>
<path d="M42.7558 93.0733C42.7355 93.1001 41.4505 92.3568 39.8856 91.4134C38.3203 90.4697 37.0679 89.6832 37.0881 89.6565C37.1084 89.6298 38.3934 90.3728 39.9586 91.3165C41.5233 92.2601 42.7757 93.0466 42.7558 93.0733Z" fill="#263238"/>
<path d="M41.385 89.5963C41.3914 89.6219 40.9755 89.7083 40.4494 89.7466C39.9234 89.7861 39.4948 89.7618 39.4951 89.7356C39.4951 89.7078 39.9188 89.6883 40.4383 89.6494C40.9574 89.6116 41.3784 89.569 41.385 89.5963Z" fill="#263238"/>
<path d="M35.7592 88.9407C35.7903 88.9534 35.6015 89.2172 35.3376 89.5296C35.0736 89.842 34.8348 90.085 34.8036 90.0723C34.7725 90.0596 34.9613 89.7958 35.2252 89.4834C35.4889 89.171 35.7281 88.928 35.7592 88.9407Z" fill="#263238"/>
<path d="M36.9106 93.7502C36.9015 93.7635 36.6633 93.6519 36.2921 93.4505C35.9209 93.2491 35.419 92.954 34.883 92.606C34.3469 92.2577 33.8743 91.9288 33.5345 91.688C33.1954 91.4466 32.99 91.2919 33.0009 91.2789C33.0115 91.2662 33.2365 91.3977 33.5901 91.6221C33.9755 91.8724 34.4429 92.1761 34.9597 92.5117C35.4939 92.8584 35.985 93.163 36.3422 93.3814C36.6995 93.5996 36.9206 93.7359 36.9106 93.7502Z" fill="#263238"/>
<path d="M32.333 98.8565C31.3956 98.6351 30.2785 99.4502 30.0853 100.299C29.892 101.149 30.2483 102.017 30.6654 102.8C31.5886 104.531 32.8631 106.138 34.5413 107.333C36.2195 108.529 38.3217 109.294 40.4674 109.284C40.0712 107.638 40.5725 105.919 40.3514 104.248C40.1588 102.789 39.3977 101.395 38.2302 100.362C37.0627 99.3282 35.4959 98.6618 33.8624 98.5041C33.2641 98.4463 32.5719 98.3624 32.333 98.8565Z" fill="#455A64"/>
<path d="M40.4679 109.284C40.4658 109.287 40.4202 109.268 40.3344 109.228C40.2499 109.187 40.1279 109.121 39.9838 109.018C39.6897 108.818 39.3526 108.433 39.0585 107.911C38.909 107.652 38.742 107.37 38.5789 107.059C38.4207 106.746 38.2519 106.412 38.0746 106.062C37.8958 105.713 37.6992 105.351 37.4549 104.997C37.2118 104.643 36.9228 104.297 36.602 103.96C35.9603 103.286 35.272 102.703 34.675 102.146C34.0749 101.591 33.5703 101.057 33.2057 100.57C32.8376 100.085 32.6144 99.6505 32.4879 99.3444C32.4275 99.1899 32.384 99.0689 32.3626 98.985C32.339 98.9015 32.3287 98.8573 32.333 98.8565C32.345 98.8532 32.3982 99.0276 32.535 99.3279C32.6751 99.6265 32.9077 100.05 33.2815 100.524C33.6521 100.999 34.1589 101.523 34.761 102.072C35.3605 102.622 36.0527 103.204 36.7014 103.885C37.0251 104.225 37.3178 104.576 37.5636 104.937C37.8106 105.298 38.0069 105.666 38.1836 106.018C38.357 106.369 38.5218 106.704 38.6765 107.018C38.8338 107.329 38.9963 107.613 39.14 107.874C39.4224 108.397 39.7374 108.776 40.0161 108.983C40.2904 109.194 40.4758 109.273 40.4679 109.284Z" fill="#263238"/>
<path d="M35.6214 107.917C35.6044 107.914 35.6337 107.698 35.7074 107.353C35.7808 107.007 35.9013 106.534 36.0635 106.018C36.2263 105.501 36.4002 105.041 36.5391 104.713C36.6781 104.384 36.7789 104.186 36.7949 104.191C36.8124 104.197 36.7424 104.405 36.6264 104.739C36.5104 105.074 36.3513 105.536 36.1891 106.049C36.0275 106.563 35.8935 107.031 35.7974 107.37C35.7011 107.71 35.6395 107.92 35.6214 107.917Z" fill="#263238"/>
<path d="M40.2902 103.878C40.2844 103.894 40.0338 103.837 39.63 103.742C39.2262 103.648 38.6684 103.519 38.0481 103.394C37.4275 103.269 36.8619 103.172 36.4517 103.102C36.0416 103.033 35.7876 102.988 35.7901 102.972C35.7925 102.956 36.051 102.972 36.4662 103.02C36.8812 103.069 37.4529 103.154 38.0768 103.28C38.7004 103.405 39.2573 103.548 39.656 103.663C40.0543 103.778 40.2953 103.863 40.2902 103.878Z" fill="#263238"/>
<path d="M32.1429 105.051C32.1256 105.048 32.1619 104.799 32.2443 104.398C32.3268 103.999 32.4578 103.449 32.6333 102.848C32.8088 102.247 32.9951 101.71 33.1419 101.325C33.2886 100.94 33.3937 100.706 33.4104 100.711C33.4279 100.716 33.3542 100.959 33.2301 101.349C33.1062 101.74 32.9347 102.279 32.7595 102.877C32.585 103.476 32.44 104.021 32.3346 104.416C32.2292 104.81 32.1613 105.054 32.1429 105.051Z" fill="#263238"/>
<path d="M38.1398 100.358C38.1359 100.39 36.9659 100.306 35.5269 100.169C34.0872 100.033 32.9236 99.8962 32.9273 99.8641C32.9312 99.832 34.1008 99.9168 35.5405 100.053C36.9798 100.189 38.1437 100.326 38.1398 100.358Z" fill="#263238"/>
<path d="M37.2827 113.044C37.2827 113.076 33.1698 113.102 28.0974 113.102C23.0232 113.102 18.9111 113.076 18.9111 113.044C18.9111 113.012 23.0232 112.986 28.0974 112.986C33.1698 112.986 37.2827 113.011 37.2827 113.044Z" fill="#455A64"/>
<path d="M34.4213 117.776C34.4213 117.808 31.6502 117.834 28.2325 117.834C24.8135 117.834 22.043 117.808 22.043 117.776C22.043 117.744 24.8135 117.718 28.2325 117.718C31.6499 117.718 34.4213 117.744 34.4213 117.776Z" fill="#455A64"/>
<path d="M34.3136 118.452C34.3136 118.484 31.5908 118.511 28.2326 118.511C24.8734 118.511 22.1509 118.484 22.1509 118.452C22.1509 118.42 24.8734 118.394 28.2326 118.394C31.5908 118.394 34.3136 118.42 34.3136 118.452Z" fill="#455A64"/>
<path d="M34.5297 117.218C34.5297 117.25 31.6631 117.276 28.1282 117.276C24.5918 117.276 21.7261 117.25 21.7261 117.218C21.7261 117.186 24.5918 117.16 28.1282 117.16C31.6631 117.16 34.5297 117.186 34.5297 117.218Z" fill="#455A64"/>
<path d="M120.992 124.558C120.992 124.597 93.9048 124.628 60.4988 124.628C27.0812 124.628 0 124.597 0 124.558C0 124.519 27.0812 124.488 60.4988 124.488C93.9048 124.488 120.992 124.519 120.992 124.558Z" fill="#263238"/>
<path d="M69.3404 26.4976C67.5498 27.579 65.4203 28.1528 63.2949 28.1271C62.617 28.1189 61.9378 28.0513 61.2622 28.1057C60.5865 28.1602 59.897 28.3512 59.401 28.7878C58.9051 29.2244 58.6525 29.9453 58.9238 30.532C59.3058 31.3578 60.5425 31.6862 60.73 32.5697C60.8646 33.2054 60.3632 33.8113 59.7986 34.1803C59.2343 34.5497 58.57 34.7949 58.0941 35.2623C57.523 35.8227 57.3022 36.6803 57.5369 37.426C57.7716 38.1717 58.4528 38.7758 59.2553 38.9507C59.7387 39.0559 60.3318 39.0589 60.594 39.4564C60.7769 39.7337 60.7096 40.0892 60.6642 40.4133C60.5687 41.0948 60.6069 41.816 60.941 42.4266C61.2751 43.0371 61.9514 43.5113 62.6789 43.4871C62.9631 43.4777 63.2419 43.3957 63.5261 43.4006C63.8103 43.4058 64.1253 43.5327 64.2102 43.7889C64.2688 43.9662 64.2037 44.1558 64.1826 44.3404C64.0794 45.243 65.0321 45.9462 65.9532 46.2054C67.7952 46.7239 69.8526 46.2235 71.4049 45.1531C72.9573 44.0827 74.0463 42.4993 74.7731 40.819C75.4999 39.1387 75.8926 37.3493 76.2814 35.5714" fill="#263238"/>
<path d="M89.9184 71.4663C89.7345 70.9783 89.3832 70.5628 89.0077 70.1852C86.5703 67.7354 82.878 66.5647 79.3243 66.7555C75.7703 66.946 72.372 68.4077 69.6041 70.5212C68.1294 71.6469 66.1446 73.8228 65.626 75.5453C67.7882 76.0376 71.0201 75.3521 73.059 74.5126C75.0979 73.673 77.1164 72.6559 79.3292 72.4431C81.8939 72.1966 84.4109 73.0564 86.9377 73.5394C87.4453 73.6363 87.9659 73.7189 88.4797 73.6565C88.9934 73.5941 89.5069 73.3679 89.7937 72.9604C90.0974 72.529 90.1022 71.9545 89.9184 71.4663Z" fill="#FF725E"/>
<g opacity="0.3">
<path d="M89.9184 71.4663C89.7345 70.9783 89.3832 70.5628 89.0077 70.1852C86.5703 67.7354 82.878 66.5647 79.3243 66.7555C75.7703 66.946 72.372 68.4077 69.6041 70.5212C68.1294 71.6469 66.1446 73.8228 65.626 75.5453C67.7882 76.0376 71.0201 75.3521 73.059 74.5126C75.0979 73.673 77.1164 72.6559 79.3292 72.4431C81.8939 72.1966 84.4109 73.0564 86.9377 73.5394C87.4453 73.6363 87.9659 73.7189 88.4797 73.6565C88.9934 73.5941 89.5069 73.3679 89.7937 72.9604C90.0974 72.529 90.1022 71.9545 89.9184 71.4663Z" fill="black"/>
</g>
<path d="M88.1495 100.635L94.3236 96.8574C94.3236 96.8574 100.463 101.515 101.676 100.922L94.3498 89.3535L84.4741 94.867L88.1495 100.635Z" fill="#FF725E"/>
<path d="M91.527 93.5799C91.45 93.3194 91.6186 93.0143 91.8909 92.9308C92.1635 92.8474 92.4937 93.0066 92.5753 93.2659C92.6572 93.5252 92.4665 93.8972 92.1861 93.9513C91.9055 94.0055 91.5286 93.7985 91.515 93.5282" fill="#E0E0E0"/>
<g opacity="0.6">
<path d="M94.35 89.3535L93.3774 89.946L100.765 100.816C100.765 100.816 101.329 101.197 101.676 100.922L94.35 89.3535Z" fill="white"/>
</g>
<path d="M94.3799 97.0799C94.4385 97.0442 94.2866 96.7464 94.3031 96.3599C94.3086 95.9729 94.4773 95.6833 94.4207 95.6448C94.376 95.5993 94.0717 95.8854 94.0607 96.3538C94.0451 96.8222 94.3329 97.1233 94.3799 97.0799Z" fill="#263238"/>
<path d="M95.6798 97.9931C95.7458 97.9733 95.6927 97.6712 95.8242 97.3364C95.9453 96.998 96.1881 96.795 96.1499 96.7403C96.1256 96.6819 95.7507 96.8405 95.5956 97.2597C95.4367 97.6776 95.6222 98.0243 95.6798 97.9931Z" fill="#263238"/>
<path d="M97.6538 97.8137C97.634 97.7553 97.2854 97.8455 97.0497 98.1754C96.8114 98.504 96.8509 98.8434 96.916 98.8391C96.9853 98.8434 97.0526 98.5725 97.2504 98.3044C97.4414 98.032 97.6836 97.8733 97.6538 97.8137Z" fill="#263238"/>
<path d="M92.8718 97.7935C92.9113 97.7391 92.6646 97.5266 92.4856 97.1943C92.2991 96.8656 92.2554 96.5528 92.1855 96.5525C92.1214 96.5443 92.0537 96.9121 92.2706 97.3004C92.4843 97.6905 92.8423 97.8479 92.8718 97.7935Z" fill="#263238"/>
<path opacity="0.3" d="M89.1277 92.2692L91.9365 98.3181L90.9947 98.9464L87.7554 93.0501L89.1277 92.2692Z" fill="black"/>
<path d="M85.4507 68.5404C85.1969 68.5404 76.8927 68.3686 72.4099 71.1645L68.8607 73.0542L68.9569 76.4485C68.9569 76.4485 68.1955 77.6466 68.3648 78.3657C68.5338 79.0845 68.3402 82.1201 68.3402 82.1201C68.3402 82.1201 67.0112 82.1999 66.8422 84.3569C66.8422 84.3569 64.9979 85.0756 64.186 86.3539C63.374 87.6319 55.0847 102.01 54.5774 104.327C54.0698 106.644 53.7315 110.717 55.5923 112.075C57.4532 113.434 61.5977 112.954 61.5977 112.954C61.5977 112.954 62.1898 114.632 65.827 114.712C69.4642 114.791 75.0467 110.798 75.0467 110.798L91.7944 100.014L87.8328 91.9999L81.9828 95.3807L88.242 88.5112C88.242 88.5112 91.1178 83.8781 90.2722 79.0053C89.6441 75.3873 85.4507 68.5404 85.4507 68.5404Z" fill="#263238"/>
<path d="M86.8834 71.0291C86.8831 71.0346 86.8154 71.0376 86.6866 71.0388C86.5396 71.0382 86.3528 71.0376 86.123 71.0367C85.6335 71.033 84.9258 71.0217 84.0517 71.0318C83.1782 71.0437 82.1371 71.0712 80.9901 71.1868C79.8444 71.3024 78.5889 71.5039 77.3309 71.9093C74.8044 72.7143 72.7704 73.9956 71.3233 74.9088C70.6178 75.3705 70.0409 75.748 69.6207 76.0232C69.4313 76.1464 69.2775 76.2461 69.1561 76.325C69.049 76.3925 68.991 76.4258 68.9875 76.4216C68.9839 76.417 69.0354 76.3751 69.1361 76.299C69.2523 76.214 69.3999 76.1061 69.5819 75.9731C69.972 75.6936 70.5395 75.2928 71.2556 74.8162C72.6878 73.8776 74.7225 72.5727 77.2775 71.7582C78.5501 71.3482 79.8207 71.1492 80.9742 71.041C82.13 70.9327 83.1753 70.9168 84.0514 70.9193C84.9277 70.9236 85.6361 70.952 86.1249 70.9746C86.3544 70.9878 86.5409 70.9982 86.6879 71.0067C86.8161 71.0159 86.8834 71.0236 86.8834 71.0291Z" fill="#455A64"/>
<path d="M69.7964 73.5174C69.8185 73.5364 69.586 73.6501 69.5313 73.9772C69.5061 74.1335 69.5456 74.334 69.7081 74.4707C69.8631 74.608 70.1283 74.6813 70.3549 74.5973C70.5809 74.5107 70.7194 74.2851 70.7317 74.0845C70.7499 73.8794 70.6323 73.7085 70.4999 73.6116C70.2215 73.4101 69.9703 73.4789 69.9726 73.4508C69.9696 73.4422 70.0227 73.4132 70.1312 73.4043C70.2377 73.3954 70.4038 73.4165 70.5702 73.5205C70.7337 73.618 70.9004 73.8286 70.8871 74.0913C70.8797 74.3432 70.7188 74.6269 70.4177 74.7449C70.1134 74.8553 69.79 74.7544 69.6009 74.5765C69.3995 74.3949 69.3668 74.1338 69.4141 73.9564C69.4588 73.7727 69.5637 73.6495 69.6475 73.5865C69.7324 73.5229 69.7922 73.5095 69.7964 73.5174Z" fill="#455A64"/>
<path d="M72.7752 73.9323C72.7597 73.9463 72.6418 73.8647 72.477 73.7048C72.3191 73.5452 72.0882 73.3003 71.9963 72.9466C71.9137 72.5907 72.007 72.2749 72.0746 72.0658C72.1481 71.8539 72.2158 71.7316 72.2362 71.7377C72.2601 71.7448 72.2326 71.8796 72.1902 72.0933C72.152 72.3055 72.0879 72.6042 72.1604 72.9105C72.2378 73.216 72.4346 73.4575 72.568 73.6321C72.7059 73.8063 72.7933 73.9161 72.7752 73.9323Z" fill="#455A64"/>
<path d="M73.4784 73.5266C73.4645 73.5409 73.3486 73.4731 73.1977 73.322C73.0481 73.1719 72.8711 72.9261 72.7743 72.6182C72.5913 71.9942 72.7244 71.4834 72.7564 71.4904C72.8154 71.4907 72.7649 71.9997 72.9355 72.5724C73.1145 73.1459 73.5208 73.4905 73.4784 73.5266Z" fill="#455A64"/>
<path d="M82.443 71.0291C82.4167 71.0281 82.4086 70.886 82.3844 70.6619C82.3601 70.4384 82.318 70.1293 82.182 69.8202C82.0486 69.5096 81.8363 69.2726 81.677 69.1066C81.5158 68.9409 81.4093 68.8397 81.4254 68.8217C81.439 68.8061 81.5718 68.8758 81.7602 69.0259C81.9454 69.1751 82.1917 69.4197 82.3381 69.759C82.486 70.0963 82.5097 70.4274 82.5041 70.6576C82.4977 70.8896 82.4634 71.03 82.443 71.0291Z" fill="#455A64"/>
<path d="M83.5299 71.008C83.5056 71.0058 83.5014 70.8655 83.5036 70.642C83.5007 70.4204 83.5276 70.1076 83.4302 69.7994C83.3256 69.4928 83.1275 69.2399 83.0086 69.0476C82.8843 68.8568 82.8141 68.733 82.8332 68.7199C82.8516 68.7073 82.9556 68.8073 83.1058 68.9825C83.2492 69.1601 83.47 69.4035 83.5911 69.7526C83.7002 70.1067 83.6484 70.4286 83.6221 70.6503C83.5898 70.8741 83.5522 71.0098 83.5299 71.008Z" fill="#455A64"/>
<path d="M69.2124 105.748C69.204 105.748 69.2477 105.617 69.3636 105.391C69.4763 105.163 69.6514 104.83 69.881 104.404C70.34 103.551 71.0195 102.325 71.8674 100.814C73.5632 97.7932 75.9339 93.6337 78.5704 89.049C79.2309 87.9031 79.8754 86.7844 80.4983 85.7036C81.114 84.6268 81.5608 83.5149 81.8616 82.4274C82.4724 80.2472 82.4689 78.1771 82.1979 76.498C81.9279 74.811 81.4103 73.5046 81.004 72.6345C80.7978 72.1991 80.6203 71.868 80.497 71.6454C80.4384 71.5403 80.3918 71.4568 80.3558 71.3923C80.3248 71.3348 80.3102 71.3045 80.3128 71.3033C80.3154 71.3018 80.3348 71.3293 80.3707 71.3843C80.4106 71.4473 80.462 71.5283 80.5268 71.6301C80.6598 71.8484 80.8476 72.1756 81.0639 72.6091C81.4902 73.4752 82.0286 74.7832 82.3158 76.4812C82.6039 78.1707 82.6204 80.261 82.0118 82.4647C81.712 83.5644 81.2643 84.6886 80.6433 85.7785C80.0214 86.8596 79.3778 87.9789 78.7184 89.1254C76.0864 93.7068 73.7037 97.8547 71.9723 100.868C71.118 102.366 70.4245 103.582 69.9389 104.433C69.7065 104.848 69.5239 105.174 69.394 105.406C69.3367 105.511 69.2914 105.596 69.2561 105.661C69.2299 105.717 69.2157 105.748 69.2124 105.748Z" fill="#455A64"/>
<path d="M87.8933 95.4042C87.8962 95.4088 87.8337 95.4504 87.712 95.5247C87.5747 95.6063 87.3967 95.7121 87.1756 95.8435C86.69 96.1263 86.0166 96.5189 85.192 96.9995C83.5173 97.9757 81.2123 99.3365 78.6923 100.878C76.172 102.421 73.911 103.847 72.2745 104.879C71.4678 105.387 70.809 105.801 70.334 106.099C70.1149 106.234 69.9384 106.342 69.8025 106.426C69.6798 106.499 69.6137 106.535 69.6105 106.53C69.6072 106.526 69.6668 106.481 69.783 106.399C69.9145 106.31 70.0848 106.193 70.2968 106.049C70.7643 105.74 71.4131 105.311 72.2072 104.787C73.8272 103.731 76.0785 102.289 78.6004 100.745C81.122 99.2026 83.4387 97.8559 85.1299 96.9038C85.9755 96.4278 86.6631 96.0478 87.1419 95.7906C87.3698 95.6696 87.5534 95.5724 87.6948 95.4975C87.8221 95.4317 87.8904 95.3996 87.8933 95.4042Z" fill="#455A64"/>
<path d="M90.5139 100.833C90.5029 100.836 90.4482 100.723 90.3592 100.516C90.2488 100.28 90.1135 99.9896 89.9535 99.6475C89.6042 98.9171 89.1053 97.9143 88.5472 96.8097C87.9975 95.7213 87.5006 94.7374 87.1176 93.9795C86.9509 93.6398 86.8094 93.3518 86.6941 93.117C86.597 92.9119 86.5481 92.7963 86.5585 92.7914C86.5689 92.7865 86.6378 92.8926 86.7531 93.0892C86.8683 93.2858 87.0295 93.5729 87.2248 93.9294C87.6149 94.6426 88.1406 95.6347 88.6997 96.7406C89.2585 97.8461 89.7412 98.8584 90.0633 99.6025C90.2258 99.974 90.3446 100.28 90.4207 100.493C90.4913 100.71 90.5249 100.83 90.5139 100.833Z" fill="#455A64"/>
<path d="M69.2122 105.748C69.1817 105.715 72.0458 103.324 75.6089 100.408C79.1729 97.4914 82.0859 95.1547 82.1167 95.1878C82.1475 95.2208 79.2837 97.6116 75.7193 100.528C72.1562 103.444 69.2426 105.781 69.2122 105.748Z" fill="#455A64"/>
<path d="M65.6641 111.352C65.6479 111.332 66.0014 111.136 66.3524 110.628C66.6978 110.122 67.1245 109.375 67.6017 108.564C68.0747 107.747 68.4861 107 68.784 106.458C69.0815 105.917 69.2673 105.582 69.289 105.592C69.3094 105.6 69.1618 105.952 68.8911 106.508C68.6202 107.063 68.2242 107.821 67.75 108.64C67.2695 109.456 66.8309 110.188 66.4498 110.693C66.2549 110.942 66.0617 111.119 65.9127 111.221C65.7641 111.324 65.669 111.36 65.6641 111.352Z" fill="#455A64"/>
<path d="M68.6974 112.219C68.6708 112.205 68.857 111.872 69.059 111.299C69.2607 110.726 69.4698 109.91 69.5841 108.994C69.6919 108.078 69.6903 107.236 69.5718 106.647C69.5232 106.349 69.4277 106.124 69.3536 105.973C69.2642 105.833 69.2021 105.758 69.2124 105.748C69.2173 105.742 69.2976 105.802 69.4102 105.942C69.5061 106.089 69.6236 106.321 69.6886 106.624C69.8411 107.226 69.8609 108.084 69.7518 109.013C69.6359 109.941 69.4051 110.765 69.1713 111.337C69.0512 111.621 68.9457 111.849 68.8511 111.996C68.7615 112.145 68.7074 112.224 68.6974 112.219Z" fill="#455A64"/>
<path d="M65.191 107.573C65.1858 107.55 65.4309 107.486 65.8233 107.38C66.2147 107.272 66.7543 107.12 67.315 106.877C68.4378 106.382 69.173 105.701 69.2122 105.748C69.2261 105.762 69.0568 105.943 68.7437 106.197C68.4303 106.449 67.9619 106.769 67.3859 107.021C66.8097 107.271 66.2538 107.409 65.8521 107.489C65.4487 107.568 65.1952 107.593 65.191 107.573Z" fill="#455A64"/>
<path d="M69.4727 85.36C69.475 85.3618 69.4601 85.3838 69.4287 85.4251C69.3908 85.4734 69.3439 85.5327 69.2866 85.6055C69.161 85.7632 68.9777 85.9977 68.7608 86.3117C68.3206 86.9348 67.7569 87.8853 67.2279 89.129C66.6928 90.3709 66.2159 91.9054 65.7468 93.6242C65.2661 95.3388 64.7889 97.2499 63.9634 99.158C63.1258 101.058 62.0967 102.76 61.4304 104.417C60.76 106.066 60.4116 107.652 60.421 108.987C60.4223 109.655 60.5097 110.256 60.6369 110.772C60.7645 111.29 60.9429 111.717 61.0986 112.06C61.265 112.4 61.4058 112.659 61.5152 112.827C61.5625 112.906 61.601 112.97 61.6321 113.023C61.6577 113.068 61.6697 113.091 61.6674 113.093C61.6648 113.094 61.6483 113.073 61.6179 113.032C61.5826 112.982 61.5395 112.92 61.4861 112.844C61.367 112.68 61.2158 112.425 61.0387 112.086C60.8726 111.744 60.6832 111.315 60.5453 110.794C60.4074 110.273 60.3106 109.664 60.3015 108.988C60.2769 107.634 60.6165 106.031 61.2851 104.364C61.9494 102.692 62.9763 100.984 63.8073 99.0974C64.626 97.2056 65.1074 95.3005 65.5966 93.5869C66.0741 91.8687 66.5652 90.3299 67.1175 89.0865C67.6637 87.8413 68.2474 86.8923 68.7064 86.2772C68.9327 85.9671 69.1254 85.7375 69.26 85.5856C69.3228 85.5165 69.374 85.4602 69.4154 85.4147C69.4514 85.3768 69.4705 85.3581 69.4727 85.36Z" fill="#455A64"/>
<path d="M70.0179 75.7117C70.0315 75.7187 69.9564 75.8456 69.8496 76.0856C69.7418 76.3244 69.6026 76.679 69.531 77.1361C69.4598 77.5928 69.4737 78.1477 69.5919 78.7503C69.6896 79.3575 69.9584 79.9858 70.1403 80.6896C70.2332 81.0388 70.2682 81.4056 70.2361 81.7468C70.2086 82.0886 70.1455 82.4124 70.0697 82.7154C69.9214 83.3232 69.7317 83.8533 69.5689 84.2963C69.4035 84.7384 69.2571 85.0915 69.1542 85.3346C69.0503 85.5774 68.9888 85.71 68.9777 85.7064C68.9671 85.7027 69.0079 85.5627 69.0927 85.3135C69.1888 85.035 69.3105 84.6819 69.4562 84.2606C69.6039 83.8151 69.7806 83.284 69.9185 82.6836C70.0545 82.084 70.1723 81.4099 69.9768 80.7263C69.801 80.0436 69.5313 79.3979 69.4394 78.7757C69.3274 78.16 69.3251 77.5864 69.4141 77.1186C69.5035 76.6503 69.6638 76.2935 69.791 76.0599C69.8544 75.9425 69.9095 75.8544 69.9506 75.797C69.9898 75.738 70.0131 75.7089 70.0179 75.7117Z" fill="#455A64"/>
<path d="M70.4126 84.909C70.3796 84.8885 70.906 84.5076 71.2271 83.6084C71.3884 83.1657 71.4903 82.6081 71.4819 81.9874C71.4754 81.3662 71.3618 80.6859 71.2139 79.9766C71.0685 79.2661 70.9099 78.5877 70.8568 77.9536C70.8017 77.3219 70.8238 76.749 70.8911 76.2742C70.9565 75.7988 71.0698 75.4224 71.1753 75.1739C71.2297 75.0497 71.2751 74.9553 71.3136 74.8944C71.3498 74.8327 71.3712 74.8018 71.3764 74.8042C71.3906 74.811 71.322 74.943 71.2372 75.1944C71.1524 75.4454 71.0588 75.818 71.0093 76.2873C70.9581 76.7557 70.9487 77.3201 71.0112 77.9404C71.0711 78.5599 71.2333 79.2337 71.379 79.9464C71.5272 80.6584 71.6386 81.35 71.637 81.9868C71.637 82.6233 71.5195 83.1954 71.3392 83.646C71.1608 84.0985 70.9248 84.4272 70.737 84.628C70.6405 84.7271 70.5635 84.8014 70.5046 84.8451C70.4482 84.8913 70.4168 84.913 70.4126 84.909Z" fill="#455A64"/>
<path d="M78.6226 82.5002C78.6236 82.5112 78.484 82.535 78.2315 82.5683C77.9787 82.5998 77.6141 82.6527 77.1658 82.7264C76.269 82.8728 75.0401 83.1346 73.7273 83.5607C72.4149 83.9894 71.276 84.4984 70.4744 84.905C70.0733 85.1077 69.7515 85.2783 69.532 85.4006C69.3112 85.5211 69.1859 85.5838 69.1795 85.5746C69.173 85.5654 69.2863 85.4853 69.497 85.3484C69.7065 85.2096 70.0205 85.0234 70.4165 84.8066C71.208 84.3725 72.3489 83.8423 73.6723 83.41C74.9961 82.9805 76.2405 82.7337 77.147 82.6151C77.6002 82.5552 77.969 82.5191 78.2247 82.5066C78.4801 82.4922 78.6216 82.4895 78.6226 82.5002Z" fill="#455A64"/>
<path d="M79.1498 79.1668C79.1502 79.197 78.6723 79.1897 77.9174 79.3004C77.5396 79.3533 77.096 79.4502 76.614 79.5887C76.1345 79.7354 75.6185 79.9283 75.1021 80.1806C74.5884 80.4383 74.1267 80.7297 73.7262 81.0186C73.3313 81.3142 72.9946 81.6038 72.734 81.8673C72.2082 82.3907 71.9431 82.7661 71.9165 82.7487C71.9068 82.7426 71.9674 82.6457 72.0852 82.4745C72.2001 82.3014 72.3908 82.066 72.6459 81.7912C72.8991 81.5142 73.2329 81.2109 73.6294 80.9036C74.0315 80.6031 74.4997 80.3022 75.0235 80.0396C75.5499 79.7825 76.0779 79.5899 76.5683 79.4483C77.0614 79.315 77.5153 79.2282 77.9005 79.1891C78.2851 79.1472 78.5988 79.1331 78.8148 79.1423C79.0313 79.1475 79.1502 79.1561 79.1498 79.1668Z" fill="#455A64"/>
<path d="M79.8738 86.1603C79.877 86.171 79.7469 86.2175 79.5092 86.2924C79.2713 86.3658 78.9285 86.4762 78.5073 86.6174C77.6646 86.8993 76.5153 87.3276 75.2922 87.8957C74.0698 88.4659 73.0095 89.0657 72.2598 89.5249C71.8845 89.7542 71.5831 89.9438 71.3766 90.0771C71.1691 90.2092 71.0506 90.2783 71.0438 90.2694C71.0367 90.2605 71.1419 90.1749 71.3381 90.0269C71.5333 89.8777 71.8253 89.6735 72.1937 89.4311C72.9299 88.9459 73.9876 88.3265 75.2181 87.7526C76.4489 87.1809 77.6134 86.766 78.4694 86.5104C78.8974 86.382 79.2467 86.2881 79.4911 86.2325C79.7346 86.1762 79.8705 86.1499 79.8738 86.1603Z" fill="#455A64"/>
<path d="M90.0799 78.1615C90.0767 78.1682 89.9689 78.1312 89.7685 78.0581C89.5675 77.9869 89.2732 77.8814 88.8931 77.7628C88.1343 77.5237 87.0242 77.2455 85.659 77.093L85.7402 77.0235C85.7771 78.3388 85.7693 79.9023 85.6444 81.5683C85.5117 83.3681 85.2588 85.0331 84.9613 86.4013L84.9594 86.3689C85.3404 87.5175 85.7273 88.4509 86.0358 89.0838C86.1876 89.4021 86.3284 89.6405 86.4233 89.8038C86.525 89.9631 86.5787 90.0487 86.5725 90.053C86.567 90.0569 86.5013 89.979 86.387 89.8249C86.2799 89.6671 86.1261 89.432 85.9626 89.1168C85.6301 88.4885 85.2229 87.56 84.825 86.408L84.8198 86.3924L84.8234 86.3753C85.1028 85.0093 85.3443 83.3504 85.4764 81.5569C85.6007 79.8974 85.6175 78.3388 85.5958 77.0266L85.5945 76.9471L85.6771 76.9572C87.0507 77.1247 88.1663 77.4247 88.9209 77.6873C89.2991 77.8175 89.5898 77.9356 89.786 78.0193C89.9809 78.1049 90.0828 78.1551 90.0799 78.1615Z" fill="#455A64"/>
<path d="M90.3434 79.4853C90.334 79.5073 90.0782 79.4269 89.6622 79.3098C89.2465 79.1921 88.6687 79.042 88.0238 78.8983C86.7334 78.6131 85.6728 78.4296 85.6812 78.3819C85.6851 78.3605 85.9544 78.3816 86.3866 78.4406C86.8185 78.4996 87.4132 78.5984 88.0626 78.7433C89.3663 79.0237 90.3641 79.444 90.3434 79.4853Z" fill="#455A64"/>
<path d="M88.7875 74.7804C88.7791 74.8045 88.3926 74.6957 87.761 74.5557C87.1293 74.4153 86.2481 74.2576 85.2627 74.1802C84.2766 74.1044 83.3792 74.1197 82.7307 74.1481C82.0819 74.1772 81.6802 74.2099 81.6773 74.1854C81.676 74.1744 81.7747 74.1536 81.955 74.1255C82.135 74.0962 82.3976 74.065 82.7226 74.0359C83.373 73.9785 84.2795 73.9451 85.2766 74.0219C86.2734 74.1001 87.1624 74.2778 87.7907 74.4471C88.1051 74.5318 88.357 74.6092 88.5276 74.6712C88.6988 74.7315 88.7914 74.77 88.7875 74.7804Z" fill="#455A64"/>
<path d="M82.2001 76.1596C82.2027 76.1696 82.0509 76.2167 81.7712 76.2864C81.4915 76.3549 81.0832 76.443 80.5733 76.5264C79.5558 76.6897 78.122 76.8401 76.5408 76.716C75.7606 76.6441 74.9811 76.5628 74.3718 76.2027C74.073 76.0235 73.8363 75.7811 73.6968 75.5108C73.5505 75.2414 73.5375 74.9418 73.5809 74.6991C73.6641 74.2081 73.825 73.8381 73.9428 73.588C74.0649 73.3386 74.1643 73.2163 74.1727 73.2218C74.1837 73.2282 74.1054 73.359 74.0034 73.6119C73.9059 73.8644 73.7638 74.2386 73.6991 74.7134C73.666 74.9498 73.6848 75.2078 73.8221 75.4518C73.9535 75.6945 74.1753 75.9156 74.4543 76.0779C75.0199 76.4063 75.7823 76.487 76.5554 76.557C78.1158 76.6796 79.539 76.5491 80.5549 76.4148C81.0638 76.346 81.4736 76.2754 81.7569 76.2256C82.0399 76.1748 82.1972 76.1482 82.2001 76.1596Z" fill="#455A64"/>
<path d="M81.3748 21.361C79.8273 18.1948 75.9978 18.8185 74.1651 19.659C72.3324 20.4997 70.9471 21.8226 70.1155 23.709C69.5764 24.9319 69.1491 26.3267 68.0636 27.0653C67.5883 27.3888 67.0286 27.5511 66.5232 27.8223C66.0179 28.0932 65.5368 28.5276 65.4478 29.1088C65.2862 30.1621 66.4061 30.8922 67.352 31.3175C66.79 31.6785 66.6437 32.4957 66.8408 33.1488C67.0383 33.8018 67.499 34.328 67.9483 34.83C69.3291 36.3721 71.7989 38.2677 73.5662 39.3053C75.3335 40.343 76.4772 40.4671 78.3769 39.7199C79.1484 39.4163 79.8671 38.9198 80.6881 38.8311C81.6422 38.7281 82.558 39.1922 83.5001 39.3772C84.4425 39.5621 85.6378 39.3075 85.945 38.3683C86.0631 38.0072 86.0227 37.6134 86.0738 37.2358C86.1253 36.8585 86.3208 36.4495 86.6799 36.3633C86.9725 36.2933 87.2619 36.4602 87.5494 36.5504C88.2319 36.7644 89.2604 41.5528 89.9156 41.2614C89.9156 41.2614 90.8671 33.1457 89.0335 28.3998C88.4485 26.8862 87.1998 23.654 86.2001 22.3971C84.8284 20.6715 81.5389 21.0546 81.3748 21.361Z" fill="#263238"/>
<path d="M79.4115 21.8871C76.9753 21.0837 73.6865 22.8493 72.9399 25.1817C72.1105 27.7734 71.2063 30.968 71.0483 33.0039C70.7311 37.0976 73.8092 38.3099 73.8092 38.3099L72.5553 44.7085L83.1209 41.4834L86.8083 26.4065L87.1514 25.1386L79.4115 21.8871Z" fill="#FFBE9D"/>
<path d="M72.9408 28.3387C72.978 28.4252 73.4791 28.298 74.0301 28.5038C74.5834 28.7019 74.8767 29.1199 74.9632 29.0783C75.0043 29.0609 74.9871 28.923 74.8612 28.7365C74.7378 28.5515 74.4908 28.3243 74.1467 28.1984C73.8025 28.0727 73.4639 28.085 73.247 28.1458C73.0262 28.206 72.9213 28.299 72.9408 28.3387Z" fill="#263238"/>
<path d="M78.4071 29.6974C78.4705 29.7692 78.9079 29.5054 79.4984 29.5445C80.0892 29.5757 80.5023 29.8906 80.5716 29.8264C80.6049 29.7983 80.545 29.6717 80.365 29.5298C80.1886 29.3886 79.8804 29.2424 79.5123 29.2204C79.1439 29.1987 78.825 29.307 78.6376 29.4265C78.4466 29.5466 78.3757 29.665 78.4071 29.6974Z" fill="#263238"/>
<path d="M75.9536 31.9876C75.964 31.9574 75.6198 31.8195 75.0565 31.6205C74.9128 31.5734 74.7804 31.515 74.7791 31.4144C74.7694 31.3062 74.8681 31.1698 74.9798 31.024C75.2019 30.7179 75.4343 30.3975 75.6784 30.0615C76.6581 28.6879 77.404 27.545 77.3451 27.5084C77.2861 27.4717 76.4441 28.5552 75.4648 29.9288C75.2268 30.2682 74.9996 30.592 74.783 30.9017C74.6878 31.0475 74.5476 31.2053 74.5709 31.4306C74.5849 31.5431 74.6742 31.6428 74.7626 31.6877C74.8503 31.7357 74.9326 31.7556 75.0044 31.7758C75.5816 31.9354 75.9436 32.0182 75.9536 31.9876Z" fill="#263238"/>
<path d="M73.8085 38.3209C73.8085 38.3209 76.7221 39.139 79.9003 38.1753C79.9003 38.1753 77.8484 40.6402 73.6133 39.32L73.8085 38.3209Z" fill="#EB996E"/>
<path d="M75.6386 33.8168C75.5818 33.7486 75.6644 33.8988 75.6386 33.8168V33.8168Z" fill="#EB996E"/>
<path d="M77.5197 33.5505C77.4035 33.298 77.1529 33.1081 76.8806 33.0179C76.4879 32.8877 76.0431 32.9565 75.7394 33.1943C75.5371 33.3894 75.6125 33.7352 75.6381 33.8168C75.8421 34.0626 75.8612 34.2714 76.148 34.4222C76.4348 34.5726 77.1597 34.4787 77.3908 34.2864C77.5961 34.1158 77.6362 33.8031 77.5197 33.5505Z" fill="#EB996E"/>
<path d="M77.557 32.741C77.4644 32.715 77.3164 33.306 76.6761 33.6068C76.0367 33.9092 75.386 33.6948 75.3604 33.7765C75.3426 33.8116 75.4805 33.9241 75.7602 33.9938C76.0344 34.0642 76.4585 34.0697 76.8503 33.8856C77.241 33.7007 77.467 33.3885 77.5486 33.1506C77.6344 32.9088 77.6007 32.7468 77.557 32.741Z" fill="#263238"/>
<path d="M79.5962 26.8159C79.5648 26.9724 80.0484 27.1338 80.535 27.4683C81.0297 27.7918 81.3583 28.1748 81.4962 28.0895C81.56 28.0477 81.5571 27.8841 81.459 27.6679C81.3622 27.4527 81.1602 27.1928 80.8662 26.995C80.5719 26.7981 80.2514 26.7079 80.0115 26.6972C79.77 26.6859 79.6133 26.7425 79.5962 26.8159Z" fill="#263238"/>
<path d="M73.2932 26.2426C73.422 26.3585 73.8633 26.186 74.4095 26.1304C74.9537 26.0586 75.4276 26.124 75.5208 25.9821C75.561 25.9136 75.4752 25.7935 75.2609 25.6923C75.0495 25.5908 74.7063 25.5235 74.3314 25.5672C73.9569 25.6113 73.6428 25.7553 73.4661 25.902C73.2858 26.0497 73.2356 26.1857 73.2932 26.2426Z" fill="#263238"/>
<path d="M87.7441 25.1294C87.6 24.8093 87.2575 24.617 86.9344 24.4495C84.8333 23.3611 82.6555 22.4044 80.4201 21.5881L79.5 22.0794C79.2281 23.7607 80.1598 25.5574 81.7332 26.3851C82.3616 26.7156 83.1777 27.0259 83.2586 27.7009C83.3428 28.4001 82.5668 28.8777 82.1272 29.4461C81.5872 30.144 81.5571 31.1585 82.055 31.884C82.3376 32.2961 82.7643 32.6098 83.0233 33.0354C83.3665 33.5997 83.37 34.317 83.1094 34.9193C82.8485 35.5216 82.4095 36.3351 81.8225 36.6763C83.3943 37.0661 85.2377 36.3128 86.0606 34.989C86.5507 34.2005 86.5896 33.2436 86.655 32.3313C86.8036 30.2526 87.1542 28.1871 87.701 26.1686C87.7936 25.8265 87.8901 25.4547 87.7441 25.1294Z" fill="#263238"/>
<path d="M80.5667 21.6829C79.962 22.3592 79.3433 23.0468 78.5476 23.5146C77.7518 23.9823 76.7349 24.2022 75.8651 23.8723C76.0829 23.6451 76.3008 23.4179 76.5187 23.1911C74.9748 24.1893 73.2081 24.879 71.3687 25.2022C72.528 23.872 73.7232 22.5127 75.3047 21.6542C76.8865 20.7957 78.9626 20.5315 80.5084 21.4463" fill="#263238"/>
<path d="M87.9577 29.4152L83.0233 33.0354C83.5889 33.6172 83.3677 35.1037 82.8132 35.6949C82.2586 36.2862 81.5189 36.7892 81.3003 37.5517C81.0611 38.3872 81.5302 39.2524 81.5438 40.1177C81.5629 41.3427 80.6904 42.3911 80.0177 43.4385C79.345 44.486 78.8603 45.8829 79.6101 46.8826C80.4541 48.0077 82.3687 47.8469 83.5247 47.0043C84.6805 46.162 85.3406 44.8675 86.1998 43.7528C87.059 42.6378 88.398 41.7873 89.8506 41.9264C90.3226 37.7565 89.6327 33.2992 87.9577 29.4152Z" fill="#263238"/>
<path d="M88.7825 39.5056C88.7518 39.4548 89.0435 39.2543 89.543 38.8779C90.0357 38.4988 90.7538 37.9405 91.4065 37.0906C91.7318 36.6669 92.0274 36.1682 92.2404 35.5971C92.4521 35.0281 92.5768 34.3861 92.5321 33.7245C92.4923 33.0644 92.255 32.393 91.8529 31.773C91.445 31.1548 90.8765 30.5919 90.2141 30.1043C88.8845 29.1296 87.3134 28.5701 85.9136 27.9935C84.5043 27.4313 83.224 26.8256 82.2926 26.1163C81.3479 25.4245 80.7522 24.6724 80.4508 24.1126C80.1504 23.5473 80.1002 23.1972 80.1471 23.1825C80.209 23.1602 80.3637 23.4675 80.7302 23.9502C81.0989 24.4299 81.7147 25.0689 82.6454 25.6629C83.5652 26.2732 84.7912 26.7926 86.2101 27.316C86.9178 27.5826 87.6718 27.8572 88.442 28.1959C89.2083 28.5338 90.0034 28.9364 90.7311 29.4763C91.4583 30.0117 92.095 30.6451 92.5577 31.3679C93.0151 32.091 93.2841 32.9054 93.3071 33.6893C93.3359 34.472 93.1611 35.2018 92.8934 35.831C92.6247 36.4611 92.2611 36.9992 91.8768 37.4358C91.1031 38.3129 90.2912 38.8229 89.7269 39.1344C89.1558 39.4414 88.8091 39.5505 88.7825 39.5056Z" fill="#263238"/>
<path d="M88.8751 28.5166C88.8706 28.5267 88.7181 28.4796 88.4458 28.3846C88.1739 28.2895 87.7818 28.1467 87.303 27.9568C86.3522 27.5741 85.022 27.0115 83.7762 26.0613C82.5301 25.1083 81.7363 23.9007 81.434 22.9547C81.2773 22.4824 81.2161 22.0834 81.2051 21.8079C81.1918 21.6707 81.2035 21.5631 81.2035 21.4909C81.2067 21.4184 81.2109 21.3808 81.2167 21.3808C81.2572 21.3766 81.208 21.9987 81.5469 22.919C81.8717 23.8359 82.6616 25.0032 83.8827 25.9381C85.1061 26.8715 86.4147 27.446 87.3509 27.8538C87.8009 28.044 88.1768 28.203 88.4707 28.3274C88.7352 28.4396 88.8796 28.5062 88.8751 28.5166Z" fill="#455A64"/>
<path d="M89.0302 33.1577C89.0117 33.1509 89.1098 32.9739 89.1619 32.6294C89.214 32.2879 89.1797 31.7675 88.901 31.2022C88.6278 30.6369 88.1256 30.0441 87.4047 29.5751C86.6954 29.0902 85.8141 28.7031 84.9339 28.2075C84.053 27.7077 83.3006 27.0941 82.7286 26.4502C82.1462 25.8127 81.7363 25.1545 81.4443 24.5843C81.1591 24.0092 80.9927 23.5182 80.9043 23.1743C80.8532 23.004 80.8324 22.8673 80.8127 22.7762C80.7952 22.6845 80.7887 22.6359 80.7946 22.635C80.8091 22.6319 80.8574 22.8221 80.9674 23.1575C81.0743 23.4935 81.2565 23.9738 81.5515 24.5348C81.8535 25.0912 82.2676 25.7329 82.8464 26.3542C83.4159 26.9825 84.1547 27.5793 85.021 28.0709C85.8893 28.5604 86.776 28.9544 87.4956 29.4559C88.2276 29.9407 88.7443 30.5675 89.0101 31.1557C89.2843 31.7461 89.3011 32.29 89.227 32.6385C89.192 32.814 89.1441 32.9467 89.1007 33.0308C89.0596 33.1167 89.0353 33.1598 89.0302 33.1577Z" fill="#455A64"/>
<path d="M61.7503 30.0481C61.748 30.0465 61.7581 30.0297 61.7801 29.9979C61.8031 29.967 61.8332 29.9178 61.8863 29.8631C61.9853 29.75 62.1582 29.5913 62.437 29.4788C62.716 29.366 63.0857 29.3253 63.504 29.3048C63.921 29.2813 64.4017 29.2519 64.9291 29.2516C65.4549 29.2428 66.0347 29.2379 66.6291 29.1034C67.2231 28.9707 67.8104 28.6717 68.3355 28.254C68.858 27.8309 69.3196 27.2946 69.7263 26.6963C70.1338 26.0977 70.4767 25.4315 70.8383 24.7516C71.199 24.0716 71.5645 23.4072 72.0018 22.8117C72.434 22.2152 72.953 21.6967 73.5312 21.3102C74.6911 20.5297 75.987 20.2551 77.0431 20.2264C78.1117 20.1974 78.9596 20.4239 79.5054 20.6364C79.6385 20.6923 79.7586 20.7425 79.8658 20.7874C79.9613 20.8382 80.0448 20.8825 80.1173 20.921C80.2523 20.9947 80.3213 21.0357 80.3183 21.0403C80.3154 21.0449 80.2407 21.0134 80.1011 20.9492C80.027 20.9149 79.9418 20.8752 79.8441 20.8302C79.7363 20.7899 79.6155 20.7443 79.4815 20.6942C78.9347 20.5016 78.0959 20.2961 77.047 20.3389C76.0107 20.3811 74.7455 20.663 73.6215 21.4298C73.0617 21.8092 72.5609 22.313 72.1375 22.9006C71.7101 23.4861 71.3492 24.1441 70.9888 24.8231C70.6282 25.5015 70.2815 26.1732 69.8651 26.7807C69.4501 27.387 68.9765 27.9336 68.4355 28.3662C67.8923 28.7933 67.2791 29.1 66.6614 29.2321C66.0441 29.3654 65.4565 29.3623 64.9298 29.3644C64.4014 29.3577 63.9287 29.3788 63.5082 29.3941C63.0906 29.406 62.7319 29.4372 62.4612 29.5366C62.1909 29.6356 62.0167 29.7805 61.9112 29.8848C61.8047 29.9894 61.7571 30.053 61.7503 30.0481Z" fill="#455A64"/>
<path d="M59.7679 25.9332C57.8212 21.3014 55.2488 16.7609 54.8801 13.3068L51.0098 13.456C51.093 14.7905 51.5986 25.9118 54.342 30.3082C57.0854 34.7047 66.2384 44.9849 66.2384 44.9849L69.4596 37.1597C69.4596 37.1597 61.7145 30.5651 59.7679 25.9332Z" fill="#FFBE9D"/>
<path d="M53.3203 6.11714H51.6265C51.6265 6.11714 51.7909 7.05849 52.5592 7.11047C53.3274 7.16244 53.1762 6.99887 53.1762 6.99887L53.0043 7.14593L51.9483 7.34374C51.9483 7.34374 52.003 8.12122 52.6984 8.24198L53.7227 7.34374L53.3203 6.11714Z" fill="#FFBE9D"/>
<path d="M57.9551 5.97773C57.8001 7.17957 57.7826 7.10741 57.7826 7.10741L56.2351 8.31292L55.8418 6.53814C55.7883 6.29722 55.5711 6.11959 55.3108 6.10431L54.6067 6.06303C54.6067 6.06303 54.8806 5.14064 53.9974 5.22135C53.9974 5.22135 53.5115 5.096 53.1201 6.63261C52.6931 8.30833 50.8487 12.2526 51.01 13.5724L54.9343 13.7201C54.8932 12.4898 55.9625 11.1923 56.4886 10.6307C56.6472 10.4613 56.7631 10.2601 56.8162 10.0397C56.8699 9.81712 56.9897 9.5068 57.2562 9.22706C57.7398 8.71954 58.7612 7.80571 58.7612 7.80571V5.01315C58.7612 5.01254 58.105 4.81442 57.9551 5.97773ZM54.8019 8.67399L53.9971 9.01947L54.1327 8.24199L54.8022 8.17992V8.67399H54.8019Z" fill="#FFBE9D"/>
<path d="M53.9616 9.10048C53.9502 9.09834 53.9648 8.98155 54.0007 8.77274C54.0367 8.56362 54.0943 8.26247 54.1691 7.8907C54.2487 7.5067 54.34 7.06736 54.4397 6.58675C54.4863 6.34155 54.5647 6.0826 54.5728 5.82792C54.5799 5.57967 54.4753 5.2935 54.193 5.27852C53.9292 5.23388 53.7035 5.44422 53.5698 5.66191C53.496 5.76983 53.4614 5.88998 53.4141 6.01625C53.3711 6.13977 53.3287 6.26084 53.2875 6.37946C53.1325 6.84693 52.9907 7.27373 52.8667 7.64733C52.7411 8.00749 52.6242 8.29488 52.5352 8.48963C52.4465 8.68468 52.3862 8.78802 52.3765 8.78405C52.3649 8.77946 52.4044 8.66848 52.4737 8.46761C52.5436 8.26705 52.6423 7.97661 52.7527 7.61401C52.8667 7.23765 52.9968 6.80718 53.1393 6.33605C53.1791 6.21589 53.2199 6.0933 53.2616 5.96795C53.305 5.84718 53.3458 5.70654 53.4277 5.58303C53.5038 5.45951 53.6009 5.34058 53.7314 5.24489C53.8599 5.14858 54.0438 5.09355 54.2183 5.12107C54.3063 5.13452 54.3827 5.15592 54.4656 5.20361C54.5433 5.25223 54.6 5.3201 54.6395 5.39042C54.7185 5.53136 54.7421 5.68728 54.7382 5.83098C54.7253 6.12203 54.6421 6.37151 54.5922 6.61702C54.4795 7.09518 54.3763 7.53207 54.2863 7.91393C54.1966 8.28265 54.1215 8.58043 54.0655 8.78558C54.0091 8.99042 53.9729 9.10293 53.9616 9.10048Z" fill="#EB996E"/>
<path d="M54.7628 8.68284C54.7153 8.67581 54.7509 8.27377 54.7162 7.78338C54.7081 7.66047 54.6968 7.54399 54.6852 7.4379C54.6751 7.32753 54.6609 7.25415 54.6117 7.21624C54.5022 7.13889 54.3685 7.13828 54.3763 7.11076C54.3769 7.10006 54.4035 7.08936 54.4546 7.08386C54.5045 7.0808 54.5841 7.07285 54.6809 7.12452C54.7865 7.17986 54.8234 7.31622 54.8389 7.4168C54.86 7.52534 54.8762 7.6461 54.8846 7.77329C54.9202 8.28508 54.8065 8.6914 54.7628 8.68284Z" fill="#EB996E"/>
<path d="M56.6843 7.99923C56.6986 8.01604 56.5788 8.13497 56.3664 8.30832C56.1531 8.47892 55.8436 8.71036 55.445 8.8831C55.0442 9.05829 54.6451 9.10445 54.3673 9.12432C54.0866 9.14206 53.9134 9.13441 53.9112 9.11332C53.9086 9.09069 54.0795 9.05829 54.3524 9.01273C54.6244 8.96473 55.0002 8.90297 55.3754 8.73818C55.7523 8.57523 56.0643 8.3655 56.2942 8.21905C56.5228 8.06985 56.6697 7.9815 56.6843 7.99923Z" fill="#EB996E"/>
<path d="M87.452 42.7244C87.452 42.7244 91.8073 42.6018 94.4189 41.8711C97.0305 41.1404 107.057 38.885 107.057 38.885L123.124 36.3529L123.441 40.2803C123.441 40.2803 108.508 44.4041 105.606 45.3442C102.704 46.284 89.4433 50.5774 86.9431 50.0335L85.3901 47.015L87.452 42.7244Z" fill="#FFBE9D"/>
<path d="M130.846 31.7382C130.584 31.6834 129.281 32.2423 129.281 32.2423C129.722 31.7213 129.308 31.2282 129.308 31.2282L127.52 32.0564C127.52 32.0564 126.616 32.9189 126.028 33.3356C125.439 33.7523 123.784 35.5583 123.748 35.6625L122.681 36.6002L123.343 40.3164C123.343 40.3164 124.189 40.3858 124.741 40.1427C125.292 39.8997 126.101 38.9272 126.101 38.9272L127.627 38.8046C127.804 38.7905 127.978 38.7333 128.112 38.6245C128.573 38.2524 128.492 37.6422 128.492 37.6422C129.448 37.1212 128.896 36.4614 128.896 36.4614C128.896 36.4614 129.449 36.3984 129.68 36.0533C129.867 35.7741 129.816 35.5583 129.632 35.2458C129.448 34.9334 128.05 35.0373 128.05 35.0373L127.977 34.6552C127.977 34.6552 130.113 33.0522 130.591 32.7046C131.069 32.3579 131.092 31.7898 130.846 31.7382Z" fill="#FFBE9D"/>
<path d="M129.308 32.2056C129.329 32.2142 129.13 32.5505 128.651 32.9458C128.421 33.1485 128.128 33.3714 127.869 33.6661C127.605 33.9572 127.435 34.3497 127.298 34.7811C127.163 35.2119 127.023 35.6375 126.817 35.9875C126.618 36.341 126.383 36.6274 126.168 36.8485C125.951 37.0692 125.75 37.2236 125.607 37.3218C125.463 37.4202 125.375 37.4624 125.369 37.4547C125.351 37.4324 125.675 37.2215 126.078 36.7739C126.277 36.5489 126.494 36.2645 126.679 35.9194C126.871 35.5769 127 35.1712 127.137 34.7337C127.274 34.2996 127.461 33.8765 127.75 33.5716C128.03 33.2659 128.334 33.0516 128.572 32.8608C129.065 32.4927 129.288 32.1931 129.308 32.2056Z" fill="#EB996E"/>
<path d="M128.522 37.6253C128.531 37.6416 128.272 37.7911 127.808 37.943C127.575 38.0164 127.288 38.0858 126.96 38.1081C126.797 38.1197 126.624 38.1185 126.445 38.102C126.266 38.0836 126.069 38.0411 125.9 37.9256C125.733 37.8103 125.614 37.6241 125.626 37.4236C125.657 37.2099 125.795 37.0897 125.913 36.9784C126.032 36.8726 126.19 36.7831 126.334 36.7546C126.474 36.7185 126.604 36.6913 126.723 36.6678C127.199 36.5733 127.505 36.5562 127.507 36.5837C127.508 36.6005 127.217 36.6556 126.751 36.7772C126.635 36.8075 126.508 36.8408 126.374 36.8809C126.239 36.9148 126.133 36.9842 126.019 37.0854C125.915 37.1811 125.801 37.3123 125.791 37.4321C125.783 37.5648 125.87 37.7082 125.999 37.7969C126.271 37.9751 126.646 37.9659 126.951 37.9617C127.264 37.9482 127.543 37.8929 127.774 37.8351C128.235 37.7143 128.512 37.6015 128.522 37.6253Z" fill="#EB996E"/>
<path d="M128.936 36.4553C128.942 36.4743 128.738 36.5565 128.386 36.6125C128.209 36.6397 127.998 36.6586 127.76 36.6549C127.53 36.6467 127.221 36.6189 127.014 36.3841C126.814 36.1407 126.866 35.8295 126.982 35.6265C127.104 35.4103 127.299 35.2892 127.459 35.2116C127.788 35.0648 128.009 35.0456 128.014 35.0609C128.024 35.0865 127.81 35.148 127.517 35.31C127.375 35.3938 127.211 35.5133 127.121 35.6931C127.028 35.8683 127.003 36.1166 127.146 36.2847C127.289 36.4544 127.548 36.4954 127.766 36.5085C127.992 36.5198 128.199 36.5134 128.371 36.5009C128.717 36.4746 128.93 36.4321 128.936 36.4553Z" fill="#EB996E"/>
<path d="M127.889 38.7489C127.892 38.7709 127.72 38.8152 127.44 38.8804C127.161 38.9418 126.762 39.0342 126.306 39.0088C126.199 39.0088 126.04 38.9745 125.959 38.8687C125.879 38.7706 125.854 38.6563 125.86 38.552C125.875 38.3435 126 38.1836 126.133 38.1011C126.416 37.9381 126.625 38.0375 126.611 38.0494C126.613 38.076 126.413 38.0359 126.204 38.1916C126.106 38.2674 126.019 38.4025 126.016 38.5578C126.014 38.6321 126.038 38.7144 126.087 38.7703C126.136 38.8278 126.207 38.8452 126.316 38.8498C126.742 38.8739 127.132 38.8033 127.418 38.7697C127.705 38.7327 127.886 38.7272 127.889 38.7489Z" fill="#EB996E"/>
<path d="M80.0535 55.758C80.0581 55.7666 79.9529 55.8299 79.7505 55.924C79.5485 56.0185 79.2458 56.1371 78.8583 56.246C78.0884 56.4664 76.9469 56.6107 75.7251 56.3909C74.5017 56.1735 73.4982 55.6363 72.8724 55.1591C72.5567 54.92 72.3243 54.7017 72.1763 54.5412C72.0274 54.3813 71.9562 54.2844 71.964 54.2783C71.9873 54.2575 72.3055 54.6225 72.9449 55.0698C73.5784 55.5162 74.5649 56.0228 75.7566 56.2347C76.9469 56.4487 78.0616 56.3267 78.8266 56.1374C79.598 55.9503 80.0406 55.7305 80.0535 55.758Z" fill="#FF725E"/>
<path d="M72.7023 44.4523C72.7023 44.4523 82.9454 41.3583 83.3281 41.262C83.7104 41.1657 92.7437 41.9258 92.7437 41.9258C92.7437 41.9258 92.3546 47.5788 94.6408 49.4074L87.9961 51.671L85.8992 57.117C85.8992 57.117 84.7302 59.3372 85.659 61.4193C87.4169 65.3605 90.4688 71.5785 90.0175 72.2902C89.9702 72.3648 89.7087 70.1354 85.3595 68.9742C84.0468 68.6239 81.6579 68.6193 79.5005 69.0299C70.2079 70.7979 66.6225 74.8507 65.5639 75.5453C65.5639 75.5453 67.4762 61.3691 66.5723 59.1559C65.6685 56.9424 64.7115 55.4991 65.4558 53.5262C66.2 51.5533 67.3195 48.4094 67.3195 48.4094L63.6597 44.4875L68.7754 36.455L73.4544 40.1189L72.7023 44.4523Z" fill="#FF725E"/>
<path d="M76.106 57.5872C76.106 57.597 75.9807 57.6068 75.7537 57.6016C75.5268 57.5961 75.1982 57.5667 74.8 57.486C74.0088 57.3301 72.9213 56.9189 72.0087 56.1026C71.0903 55.2893 70.6131 54.2709 70.4331 53.5265C70.3411 53.1514 70.3071 52.8404 70.3036 52.6261C70.2981 52.4118 70.3107 52.2935 70.3207 52.2935C70.3544 52.2913 70.3385 52.7695 70.5487 53.4984C70.7546 54.2205 71.2343 55.1985 72.1246 55.987C73.0094 56.7786 74.0577 57.1956 74.8275 57.3766C75.6035 57.5625 76.1082 57.5567 76.106 57.5872Z" fill="#263238"/>
<path d="M66.489 45.6019C66.5169 45.5744 67.0475 46.2595 67.2019 47.2691C67.3667 48.278 67.0662 49.0787 67.0313 49.0597C66.9779 49.0509 67.1951 48.2615 67.0352 47.2926C66.8882 46.3219 66.4405 45.6248 66.489 45.6019Z" fill="#263238"/>
<path d="M88.2285 47.2776C88.2444 47.3009 88.0171 47.4412 87.707 47.7234C87.3978 48.005 87.0187 48.4467 86.7526 49.0123C86.4865 49.5783 86.3939 50.1402 86.3884 50.5453C86.3806 50.9516 86.4318 51.2035 86.4026 51.209C86.3864 51.2133 86.2922 50.9666 86.2692 50.5468C86.2437 50.1289 86.321 49.5373 86.5985 48.9478C86.8759 48.3584 87.2877 47.9083 87.627 47.6402C87.9679 47.3706 88.2204 47.2632 88.2285 47.2776Z" fill="#263238"/>
<g opacity="0.3">
<path d="M74.5851 57.3772C73.4649 57.1427 72.8226 56.7541 72.0227 56.0066C71.5898 55.6021 71.2043 55.1475 70.9116 54.5556C70.6785 55.5156 72.0916 57.2176 73.4711 57.8428C74.8505 58.4683 76.5745 58.424 77.9128 57.7294C76.7632 57.7043 75.7052 57.6117 74.5851 57.3772Z" fill="black"/>
</g>
<path d="M87.1313 64.4023C87.12 64.4191 86.8614 64.2293 86.3311 64.0018C85.8021 63.7777 84.9804 63.5441 83.9386 63.531C82.9011 63.5123 81.656 63.7089 80.3875 64.2118C79.1133 64.7081 77.8252 65.4773 76.5007 66.3174C73.8675 68.0375 71.2753 69.2983 69.3445 70.0669C68.3804 70.4567 67.584 70.7347 67.0304 70.9156C66.7543 71.008 66.537 71.0725 66.3897 71.1159C66.2424 71.159 66.1641 71.1792 66.1621 71.174C66.1602 71.1688 66.235 71.1385 66.3784 71.0853C66.5377 71.0275 66.7468 70.9517 67.0078 70.8572C67.5539 70.6585 68.3416 70.3653 69.2969 69.9633C71.2118 69.1696 73.7787 67.9014 76.4072 66.1844C77.7322 65.3443 79.034 64.5711 80.3283 64.0758C81.6191 63.5729 82.8878 63.3842 83.9416 63.4182C85.0002 63.446 85.8319 63.701 86.3589 63.9452C86.8876 64.1935 87.1313 64.4023 87.1313 64.4023Z" fill="white"/>
<path d="M85.2781 59.333C85.2639 59.3473 85.0868 59.1355 84.6633 58.8805C84.2467 58.6231 83.5587 58.351 82.6655 58.2861C81.7736 58.2112 80.7027 58.4026 79.603 58.8193C78.5 59.2345 77.3517 59.8399 76.1357 60.4507C74.9217 61.0674 73.7475 61.6361 72.629 62.0482C71.5118 62.4621 70.456 62.7141 69.5551 62.8244C68.6541 62.9403 67.9131 62.9097 67.4103 62.8578C67.1588 62.8266 66.9642 62.7988 66.8344 62.7694C66.7039 62.7431 66.6362 62.7266 66.6372 62.7211C66.6401 62.7058 66.915 62.7572 67.4165 62.796C67.9173 62.8287 68.6496 62.8416 69.5386 62.7128C70.4272 62.5896 71.4677 62.3291 72.5717 61.9115C73.6772 61.4954 74.8424 60.9264 76.0557 60.3101C77.2714 59.6995 78.4245 59.096 79.546 58.6824C80.6632 58.2672 81.7629 58.0822 82.6752 58.1736C83.5882 58.2543 84.2858 58.5503 84.6996 58.8285C85.1201 59.1052 85.2781 59.333 85.2781 59.333Z" fill="white"/>
<path d="M71.6028 55.4813C71.6093 55.4905 71.5358 55.5465 71.3963 55.6406C71.3273 55.6892 71.2402 55.7446 71.1324 55.7993C71.0259 55.8556 70.9071 55.9253 70.7653 55.9815C70.4888 56.1102 70.1411 56.2255 69.7465 56.3218C69.3496 56.4092 68.9038 56.471 68.4324 56.4805C67.9611 56.4841 67.5133 56.4346 67.1138 56.3582C66.716 56.2729 66.365 56.1668 66.0847 56.0463C65.9409 55.994 65.8202 55.9274 65.7117 55.8745C65.6026 55.8228 65.5136 55.7699 65.443 55.7235C65.3003 55.6333 65.2252 55.5792 65.2313 55.57C65.2478 55.5446 65.5664 55.7385 66.1294 55.9421C66.4094 56.0469 66.7555 56.139 67.1446 56.2145C67.5357 56.2811 67.9711 56.3249 68.4298 56.3215C68.8883 56.3123 69.3224 56.2567 69.7109 56.1793C70.0974 56.0931 70.4403 55.9916 70.7171 55.8788C71.2736 55.6593 71.5853 55.4563 71.6028 55.4813Z" fill="white"/>
<path d="M86.8229 54.7127C86.8264 54.717 86.7827 54.7525 86.696 54.8164C86.6102 54.8815 86.4742 54.9668 86.29 55.0603C85.9235 55.249 85.3418 55.4532 84.5929 55.5205C83.8467 55.5908 82.9422 55.5238 81.9852 55.2933C81.024 55.0744 80.0091 54.7158 78.9236 54.4269C76.7475 53.842 74.6626 53.8772 73.2051 54.0777C72.4735 54.1789 71.8888 54.3076 71.4893 54.411C71.0891 54.5119 70.8697 54.5767 70.8648 54.5638C70.8629 54.5586 70.9156 54.5369 71.0179 54.4999C71.1209 54.4648 71.2708 54.407 71.4705 54.3513C71.8661 54.2291 72.4508 54.0826 73.1867 53.9664C74.6512 53.7353 76.7649 53.6812 78.9683 54.2734C80.0642 54.5654 81.0742 54.927 82.0221 55.1508C82.9665 55.3863 83.848 55.4624 84.5819 55.408C85.3168 55.3563 85.8902 55.1732 86.2595 55.0047C86.6312 54.8353 86.8128 54.699 86.8229 54.7127Z" fill="white"/>
<path d="M86.5532 50.1252C86.5538 50.1307 86.4829 50.1408 86.347 50.1555C86.211 50.1689 86.0096 50.1906 85.75 50.209C85.2307 50.2136 84.4706 50.216 83.5518 50.061C82.6314 49.921 81.556 49.6617 80.3724 49.3587C79.1885 49.0613 77.8835 48.7271 76.4827 48.5962C76.1321 48.584 75.7853 48.5434 75.4438 48.5641C75.2732 48.57 75.1032 48.5684 74.9358 48.5797C74.7691 48.5984 74.6037 48.617 74.4395 48.6354C73.7836 48.713 73.1679 48.8864 72.5913 49.0738C71.4401 49.4587 70.4339 49.9011 69.5504 50.1827C68.6699 50.4725 67.9191 50.6015 67.3989 50.63C67.1383 50.6495 66.9359 50.6425 66.799 50.633C66.662 50.626 66.5905 50.6199 66.5908 50.6144C66.5911 50.6089 66.6633 50.6043 66.7996 50.6009C66.9359 50.6 67.1366 50.5973 67.3934 50.5682C67.9068 50.5211 68.6424 50.3774 69.5109 50.0766C70.3825 49.7837 71.3796 49.3324 72.5398 48.9356C73.1203 48.7424 73.7464 48.5629 74.4166 48.481C74.5843 48.4617 74.7529 48.4422 74.9235 48.4226C75.0945 48.4107 75.2677 48.4116 75.4415 48.4055C75.7902 48.3841 76.1414 48.4247 76.4982 48.4373C77.9201 48.5703 79.2315 48.9118 80.4138 49.2166C81.5958 49.5278 82.6619 49.7962 83.5729 49.9494C84.4826 50.1173 85.233 50.1319 85.7494 50.1463C85.9938 50.1368 86.1909 50.1289 86.3447 50.1228C86.4804 50.1191 86.5525 50.1197 86.5532 50.1252Z" fill="white"/>
<path d="M89.7826 41.9221C89.8123 41.9383 89.4802 42.3828 89.17 43.1943C88.8583 43.9971 88.6148 45.2026 88.8547 46.498C89.094 47.7937 89.7476 48.8531 90.3209 49.5156C90.8952 50.1867 91.3592 50.5083 91.3368 50.5325C91.3307 50.5401 91.2109 50.4661 91.0095 50.3129C90.8085 50.1595 90.532 49.9192 90.2293 49.5874C89.6229 48.9332 88.9344 47.8561 88.6886 46.5252C88.442 45.1947 88.7126 43.9604 89.0584 43.1545C89.2299 42.7476 89.4086 42.4351 89.5472 42.2291C89.6854 42.0227 89.7741 41.9169 89.7826 41.9221Z" fill="white"/>
<path d="M72.696 42.8827C72.6973 42.8934 72.5953 42.9157 72.4085 42.9442C72.2217 42.972 71.9504 43.0074 71.6111 43.0249C71.2725 43.0402 70.861 43.0386 70.4155 42.9377C69.9694 42.8439 69.5045 42.603 69.1358 42.2495C68.7612 41.9013 68.4767 41.521 68.1872 41.207C67.9014 40.8927 67.599 40.6487 67.3157 40.4907C66.7408 40.1654 66.2947 40.2424 66.2998 40.2109C66.2986 40.2033 66.4018 40.1742 66.5948 40.1782C66.7861 40.1846 67.0691 40.2369 67.3737 40.3925C67.679 40.5454 68.0027 40.7915 68.3038 41.1101C68.6052 41.4256 68.8936 41.8016 69.2533 42.1355C69.6085 42.4742 70.0309 42.6971 70.4537 42.7956C70.8746 42.8992 71.2744 42.9133 71.6075 42.9124C72.2764 42.9007 72.6934 42.8558 72.696 42.8827Z" fill="white"/>
<path d="M110 23.334L111.827 19.9282C111.019 18.5404 110.552 16.9069 110.552 15.1574C110.552 10.1262 114.407 6.04761 119.163 6.04761C123.919 6.04761 127.775 10.1262 127.775 15.1574C127.775 20.1885 123.919 24.2669 119.163 24.2669C117.177 24.2669 115.35 23.5539 113.893 22.3592L113.896 22.3633L110 23.334Z" fill="white"/>
<path d="M110 23.334C110.197 23.2833 111.419 22.9695 113.889 22.3343L113.873 22.3817L113.871 22.3776C113.861 22.3645 113.863 22.3456 113.876 22.3356C113.886 22.3272 113.901 22.3277 113.91 22.3356C114.401 22.7322 114.988 23.1226 115.676 23.4469C116.364 23.7656 117.152 24.025 118.021 24.1437C118.455 24.2006 118.908 24.2367 119.372 24.2108C119.605 24.196 119.841 24.1893 120.08 24.1673C120.317 24.1286 120.557 24.0895 120.8 24.0498C121.765 23.8452 122.75 23.4548 123.669 22.8489C124.588 22.245 125.437 21.4263 126.117 20.422C126.797 19.4193 127.311 18.2317 127.552 16.9419C127.789 15.6538 127.768 14.2734 127.448 12.9384C127.126 11.6079 126.524 10.308 125.624 9.23865L125.277 8.83442C125.163 8.69849 125.027 8.58636 124.903 8.46169C124.773 8.34393 124.657 8.21004 124.517 8.10585L124.109 7.78303C123.977 7.66988 123.831 7.57874 123.687 7.4871L123.255 7.20959C123.104 7.13202 122.954 7.05471 122.803 6.9774C122.652 6.90342 122.507 6.81561 122.348 6.76262C121.112 6.24319 119.795 6.04454 118.534 6.13977C117.274 6.23423 116.067 6.61491 115.031 7.22956C113.992 7.83935 113.114 8.6542 112.436 9.5653C111.755 10.4769 111.275 11.4827 110.976 12.4855C110.678 13.4931 110.596 14.4933 110.595 15.4203C110.638 17.2875 111.222 18.8258 111.85 19.9133C111.855 19.9226 111.855 19.9338 111.85 19.9428C110.671 22.1044 110.097 23.1563 110 23.334C110.094 23.1551 110.654 22.0942 111.803 19.9141L111.804 19.9435C111.164 18.8543 110.567 17.307 110.517 15.4226C110.513 14.4872 110.594 13.4767 110.891 12.4576C111.19 11.4433 111.673 10.4247 112.359 9.5013C113.043 8.57817 113.93 7.7518 114.981 7.13279C116.028 6.50866 117.25 6.12134 118.527 6.02406C119.803 5.92601 121.138 6.1262 122.39 6.65177C122.551 6.70553 122.698 6.7941 122.852 6.86911C123.004 6.94719 123.157 7.02578 123.31 7.10438C123.455 7.19782 123.601 7.29126 123.747 7.38521C123.894 7.47814 124.041 7.5703 124.175 7.68498L124.589 8.01215C124.73 8.11788 124.848 8.25305 124.98 8.3726C125.105 8.49907 125.243 8.61273 125.359 8.75046L125.711 9.16006C126.622 10.2437 127.232 11.5611 127.558 12.9094C127.882 14.2626 127.902 15.6607 127.659 16.965C127.415 18.2711 126.892 19.4733 126.203 20.4868C125.512 21.5023 124.651 22.3287 123.721 22.9375C122.791 23.5483 121.793 23.94 120.817 24.1435C120.571 24.1826 120.328 24.2216 120.089 24.2597C119.848 24.281 119.609 24.2871 119.374 24.3012C118.905 24.3252 118.447 24.2871 118.01 24.228C117.134 24.1046 116.34 23.8388 115.647 23.514C114.955 23.1832 114.367 22.7864 113.876 22.3835L113.916 22.3415L113.918 22.3456C113.928 22.3587 113.926 22.3773 113.913 22.3876C113.91 22.3901 113.906 22.3922 113.902 22.393C111.423 22.9907 110.197 23.2864 110 23.334Z" fill="#263238"/>
<path d="M117.688 14.0466H118.249L119.473 12.2428V11.0591C119.473 11.0591 120.339 11.0027 120.237 12.5528C120.135 14.1032 120.246 13.7084 120.246 13.7084C120.246 13.7084 122.086 13.7158 122.239 13.885C122.35 14.0079 122.4 15.9412 122.419 16.9901C122.429 17.5179 122.123 18.009 121.659 18.1336C121.593 18.1515 121.526 18.1618 121.461 18.1618C121.002 18.1618 118.657 17.767 118.657 17.767H117.689V14.0466H117.688Z" fill="#FF725E"/>
<path d="M116.083 13.7217L116.428 17.778H117.388V13.8034L116.083 13.7217Z" fill="#FF725E"/>
</svg>
